<mxfile host="Electron" modified="2023-07-07T06:26:22.511Z" agent="Mozilla/5.0 (Windows NT 10.0; Win64; x64) AppleWebKit/537.36 (KHTML, like Gecko) draw.io/21.5.0 Chrome/112.0.5615.204 Electron/24.5.1 Safari/537.36" etag="uWAIVs3fN3aa4xnhbxoM" version="21.5.0" type="device">
  <diagram name="第 1 页" id="4mdqMoitLNmamL49rpm4">
    <mxGraphModel dx="1153" dy="1700" grid="1" gridSize="10" guides="1" tooltips="1" connect="1" arrows="1" fold="1" page="1" pageScale="1" pageWidth="1169" pageHeight="827" math="0" shadow="0">
      <root>
        <mxCell id="0" />
        <mxCell id="1" parent="0" />
        <mxCell id="f4O8Jdmjoy-_KB66TQuN-1" value="=" style="ellipse;whiteSpace=wrap;html=1;" parent="1" vertex="1">
          <mxGeometry x="357" y="544.33" width="50" height="50" as="geometry" />
        </mxCell>
        <mxCell id="f4O8Jdmjoy-_KB66TQuN-3" value="" style="endArrow=none;html=1;rounded=0;entryX=0;entryY=0;entryDx=0;entryDy=0;" parent="1" target="f4O8Jdmjoy-_KB66TQuN-1" edge="1">
          <mxGeometry width="50" height="50" relative="1" as="geometry">
            <mxPoint x="237" y="551.33" as="sourcePoint" />
            <mxPoint x="287" y="540.33" as="targetPoint" />
          </mxGeometry>
        </mxCell>
        <mxCell id="f4O8Jdmjoy-_KB66TQuN-4" value="" style="endArrow=none;html=1;rounded=0;entryX=0;entryY=1;entryDx=0;entryDy=0;" parent="1" target="f4O8Jdmjoy-_KB66TQuN-1" edge="1">
          <mxGeometry width="50" height="50" relative="1" as="geometry">
            <mxPoint x="237" y="587.33" as="sourcePoint" />
            <mxPoint x="364" y="580.33" as="targetPoint" />
          </mxGeometry>
        </mxCell>
        <mxCell id="f4O8Jdmjoy-_KB66TQuN-5" value="{fetch0_pc_i[31:2], 2&#39;b0}" style="text;strokeColor=none;align=center;fillColor=none;html=1;verticalAlign=middle;whiteSpace=wrap;rounded=0;" parent="1" vertex="1">
          <mxGeometry x="223" y="538.33" width="140" height="10" as="geometry" />
        </mxCell>
        <mxCell id="f4O8Jdmjoy-_KB66TQuN-6" value="{pc_x_q[31:2], 2&#39;b0}" style="text;strokeColor=none;align=center;fillColor=none;html=1;verticalAlign=middle;whiteSpace=wrap;rounded=0;" parent="1" vertex="1">
          <mxGeometry x="248" y="572.33" width="114" height="12" as="geometry" />
        </mxCell>
        <mxCell id="f4O8Jdmjoy-_KB66TQuN-7" value="" style="shape=or;whiteSpace=wrap;html=1;" parent="1" vertex="1">
          <mxGeometry x="497" y="525.33" width="50" height="59" as="geometry" />
        </mxCell>
        <mxCell id="f4O8Jdmjoy-_KB66TQuN-8" value="" style="endArrow=none;html=1;rounded=0;exitX=1;exitY=0.5;exitDx=0;exitDy=0;" parent="1" source="f4O8Jdmjoy-_KB66TQuN-1" edge="1">
          <mxGeometry width="50" height="50" relative="1" as="geometry">
            <mxPoint x="437" y="680.33" as="sourcePoint" />
            <mxPoint x="497" y="569.33" as="targetPoint" />
          </mxGeometry>
        </mxCell>
        <mxCell id="f4O8Jdmjoy-_KB66TQuN-9" value="" style="endArrow=none;html=1;rounded=0;entryX=0;entryY=0.25;entryDx=0;entryDy=0;entryPerimeter=0;" parent="1" target="f4O8Jdmjoy-_KB66TQuN-7" edge="1">
          <mxGeometry width="50" height="50" relative="1" as="geometry">
            <mxPoint x="407" y="540.33" as="sourcePoint" />
            <mxPoint x="437" y="488.33" as="targetPoint" />
          </mxGeometry>
        </mxCell>
        <mxCell id="f4O8Jdmjoy-_KB66TQuN-10" value="fetch0_valid_i" style="text;strokeColor=none;align=center;fillColor=none;html=1;verticalAlign=middle;whiteSpace=wrap;rounded=0;" parent="1" vertex="1">
          <mxGeometry x="417" y="526.33" width="80" height="10" as="geometry" />
        </mxCell>
        <mxCell id="f4O8Jdmjoy-_KB66TQuN-11" value="" style="endArrow=none;html=1;rounded=0;exitX=1;exitY=0.5;exitDx=0;exitDy=0;entryX=0.361;entryY=0.982;entryDx=0;entryDy=0;entryPerimeter=0;" parent="1" target="f4O8Jdmjoy-_KB66TQuN-12" edge="1">
          <mxGeometry width="50" height="50" relative="1" as="geometry">
            <mxPoint x="547" y="554.73" as="sourcePoint" />
            <mxPoint x="637" y="554.73" as="targetPoint" />
          </mxGeometry>
        </mxCell>
        <mxCell id="f4O8Jdmjoy-_KB66TQuN-12" value="" style="shape=trapezoid;perimeter=trapezoidPerimeter;whiteSpace=wrap;html=1;fixedSize=1;rotation=90;" parent="1" vertex="1">
          <mxGeometry x="685" y="556.33" width="100" height="26" as="geometry" />
        </mxCell>
        <mxCell id="f4O8Jdmjoy-_KB66TQuN-13" value="" style="endArrow=none;html=1;rounded=0;entryX=0.88;entryY=0.398;entryDx=0;entryDy=0;entryPerimeter=0;exitX=1;exitY=0.5;exitDx=0;exitDy=0;exitPerimeter=0;" parent="1" source="f4O8Jdmjoy-_KB66TQuN-14" edge="1">
          <mxGeometry width="50" height="50" relative="1" as="geometry">
            <mxPoint x="698" y="696.33" as="sourcePoint" />
            <mxPoint x="737.6519999999998" y="607.3300000000003" as="targetPoint" />
            <Array as="points">
              <mxPoint x="738" y="695.33" />
            </Array>
          </mxGeometry>
        </mxCell>
        <mxCell id="f4O8Jdmjoy-_KB66TQuN-14" value="" style="shape=xor;whiteSpace=wrap;html=1;" parent="1" vertex="1">
          <mxGeometry x="665" y="673.33" width="33" height="45" as="geometry" />
        </mxCell>
        <mxCell id="f4O8Jdmjoy-_KB66TQuN-15" value="" style="endArrow=none;html=1;rounded=0;entryX=0.192;entryY=0.283;entryDx=0;entryDy=0;entryPerimeter=0;" parent="1" target="f4O8Jdmjoy-_KB66TQuN-14" edge="1">
          <mxGeometry width="50" height="50" relative="1" as="geometry">
            <mxPoint x="540" y="686" as="sourcePoint" />
            <mxPoint x="563" y="666.33" as="targetPoint" />
          </mxGeometry>
        </mxCell>
        <mxCell id="f4O8Jdmjoy-_KB66TQuN-16" value="" style="endArrow=none;html=1;rounded=0;entryX=0.192;entryY=0.283;entryDx=0;entryDy=0;entryPerimeter=0;" parent="1" edge="1">
          <mxGeometry width="50" height="50" relative="1" as="geometry">
            <mxPoint x="538" y="706.33" as="sourcePoint" />
            <mxPoint x="671" y="706.33" as="targetPoint" />
          </mxGeometry>
        </mxCell>
        <mxCell id="f4O8Jdmjoy-_KB66TQuN-18" value="squash_w" style="text;strokeColor=none;align=center;fillColor=none;html=1;verticalAlign=middle;whiteSpace=wrap;rounded=0;" parent="1" vertex="1">
          <mxGeometry x="598" y="673.33" width="60" height="10" as="geometry" />
        </mxCell>
        <mxCell id="f4O8Jdmjoy-_KB66TQuN-19" value="branch_csr_request_i" style="text;strokeColor=none;align=center;fillColor=none;html=1;verticalAlign=middle;whiteSpace=wrap;rounded=0;" parent="1" vertex="1">
          <mxGeometry x="538" y="695.33" width="120" height="1" as="geometry" />
        </mxCell>
        <mxCell id="f4O8Jdmjoy-_KB66TQuN-23" value="" style="endArrow=none;html=1;rounded=0;entryX=0.763;entryY=0.994;entryDx=0;entryDy=0;entryPerimeter=0;" parent="1" target="f4O8Jdmjoy-_KB66TQuN-12" edge="1">
          <mxGeometry width="50" height="50" relative="1" as="geometry">
            <mxPoint x="658" y="595.33" as="sourcePoint" />
            <mxPoint x="698" y="605.33" as="targetPoint" />
          </mxGeometry>
        </mxCell>
        <mxCell id="f4O8Jdmjoy-_KB66TQuN-24" value="1&#39;b0" style="text;strokeColor=none;align=center;fillColor=none;html=1;verticalAlign=middle;whiteSpace=wrap;rounded=0;" parent="1" vertex="1">
          <mxGeometry x="688" y="582.33" width="36.5" height="10" as="geometry" />
        </mxCell>
        <mxCell id="f4O8Jdmjoy-_KB66TQuN-25" value="" style="endArrow=classic;html=1;rounded=0;exitX=0.5;exitY=0;exitDx=0;exitDy=0;endFill=1;" parent="1" source="f4O8Jdmjoy-_KB66TQuN-12" edge="1">
          <mxGeometry width="50" height="50" relative="1" as="geometry">
            <mxPoint x="818" y="615.33" as="sourcePoint" />
            <mxPoint x="1000" y="570" as="targetPoint" />
          </mxGeometry>
        </mxCell>
        <mxCell id="f4O8Jdmjoy-_KB66TQuN-26" value="slot0_valid_r" style="text;strokeColor=none;align=center;fillColor=none;html=1;verticalAlign=middle;whiteSpace=wrap;rounded=0;" parent="1" vertex="1">
          <mxGeometry x="744" y="556.33" width="80" height="10" as="geometry" />
        </mxCell>
        <mxCell id="f4O8Jdmjoy-_KB66TQuN-36" value="=" style="ellipse;whiteSpace=wrap;html=1;" parent="1" vertex="1">
          <mxGeometry x="335" y="227.33" width="50" height="50" as="geometry" />
        </mxCell>
        <mxCell id="f4O8Jdmjoy-_KB66TQuN-37" value="" style="endArrow=none;html=1;rounded=0;entryX=0;entryY=0;entryDx=0;entryDy=0;" parent="1" target="f4O8Jdmjoy-_KB66TQuN-36" edge="1">
          <mxGeometry width="50" height="50" relative="1" as="geometry">
            <mxPoint x="215" y="234.33" as="sourcePoint" />
            <mxPoint x="265" y="223.33" as="targetPoint" />
          </mxGeometry>
        </mxCell>
        <mxCell id="f4O8Jdmjoy-_KB66TQuN-38" value="" style="endArrow=none;html=1;rounded=0;entryX=0;entryY=1;entryDx=0;entryDy=0;" parent="1" target="f4O8Jdmjoy-_KB66TQuN-36" edge="1">
          <mxGeometry width="50" height="50" relative="1" as="geometry">
            <mxPoint x="215" y="270.33" as="sourcePoint" />
            <mxPoint x="342" y="263.33" as="targetPoint" />
          </mxGeometry>
        </mxCell>
        <mxCell id="f4O8Jdmjoy-_KB66TQuN-39" value="{fetch1_pc_i[31:2], 2&#39;b0}" style="text;strokeColor=none;align=center;fillColor=none;html=1;verticalAlign=middle;whiteSpace=wrap;rounded=0;" parent="1" vertex="1">
          <mxGeometry x="201" y="221.33" width="140" height="10" as="geometry" />
        </mxCell>
        <mxCell id="f4O8Jdmjoy-_KB66TQuN-40" value="{pc_x_q[31:2], 2&#39;b0}" style="text;strokeColor=none;align=center;fillColor=none;html=1;verticalAlign=middle;whiteSpace=wrap;rounded=0;" parent="1" vertex="1">
          <mxGeometry x="224" y="255.33" width="114" height="12" as="geometry" />
        </mxCell>
        <mxCell id="f4O8Jdmjoy-_KB66TQuN-41" value="" style="shape=or;whiteSpace=wrap;html=1;" parent="1" vertex="1">
          <mxGeometry x="475" y="208.33" width="50" height="59" as="geometry" />
        </mxCell>
        <mxCell id="f4O8Jdmjoy-_KB66TQuN-42" value="" style="endArrow=none;html=1;rounded=0;exitX=1;exitY=0.5;exitDx=0;exitDy=0;" parent="1" source="f4O8Jdmjoy-_KB66TQuN-36" edge="1">
          <mxGeometry width="50" height="50" relative="1" as="geometry">
            <mxPoint x="415" y="363.33" as="sourcePoint" />
            <mxPoint x="475" y="252.33" as="targetPoint" />
          </mxGeometry>
        </mxCell>
        <mxCell id="f4O8Jdmjoy-_KB66TQuN-43" value="" style="endArrow=none;html=1;rounded=0;entryX=0;entryY=0.25;entryDx=0;entryDy=0;entryPerimeter=0;" parent="1" target="f4O8Jdmjoy-_KB66TQuN-41" edge="1">
          <mxGeometry width="50" height="50" relative="1" as="geometry">
            <mxPoint x="385" y="223.33" as="sourcePoint" />
            <mxPoint x="415" y="171.33" as="targetPoint" />
          </mxGeometry>
        </mxCell>
        <mxCell id="f4O8Jdmjoy-_KB66TQuN-44" value="fetch1_valid_i" style="text;strokeColor=none;align=center;fillColor=none;html=1;verticalAlign=middle;whiteSpace=wrap;rounded=0;" parent="1" vertex="1">
          <mxGeometry x="393" y="209.33" width="80" height="10" as="geometry" />
        </mxCell>
        <mxCell id="f4O8Jdmjoy-_KB66TQuN-45" value="" style="shape=trapezoid;perimeter=trapezoidPerimeter;whiteSpace=wrap;html=1;fixedSize=1;rotation=90;" parent="1" vertex="1">
          <mxGeometry x="659" y="209.33" width="102.5" height="30" as="geometry" />
        </mxCell>
        <mxCell id="f4O8Jdmjoy-_KB66TQuN-46" value="" style="endArrow=none;html=1;rounded=0;exitX=1;exitY=0.505;exitDx=0;exitDy=0;exitPerimeter=0;entryX=0.636;entryY=1;entryDx=0;entryDy=0;entryPerimeter=0;" parent="1" source="f4O8Jdmjoy-_KB66TQuN-41" target="f4O8Jdmjoy-_KB66TQuN-45" edge="1">
          <mxGeometry width="50" height="50" relative="1" as="geometry">
            <mxPoint x="591" y="238.33" as="sourcePoint" />
            <mxPoint x="641" y="188.33" as="targetPoint" />
          </mxGeometry>
        </mxCell>
        <mxCell id="f4O8Jdmjoy-_KB66TQuN-47" value="" style="endArrow=none;html=1;rounded=0;entryX=0.25;entryY=1;entryDx=0;entryDy=0;" parent="1" target="f4O8Jdmjoy-_KB66TQuN-45" edge="1">
          <mxGeometry width="50" height="50" relative="1" as="geometry">
            <mxPoint x="633" y="198.33" as="sourcePoint" />
            <mxPoint x="631" y="188.33" as="targetPoint" />
          </mxGeometry>
        </mxCell>
        <mxCell id="f4O8Jdmjoy-_KB66TQuN-48" value="1&#39;b0" style="text;strokeColor=none;align=center;fillColor=none;html=1;verticalAlign=middle;whiteSpace=wrap;rounded=0;" parent="1" vertex="1">
          <mxGeometry x="657" y="186.33" width="43" height="10" as="geometry" />
        </mxCell>
        <mxCell id="f4O8Jdmjoy-_KB66TQuN-49" value="" style="endArrow=none;html=1;rounded=0;exitX=0.544;exitY=0.01;exitDx=0;exitDy=0;exitPerimeter=0;" parent="1" source="f4O8Jdmjoy-_KB66TQuN-45" edge="1">
          <mxGeometry width="50" height="50" relative="1" as="geometry">
            <mxPoint x="779" y="228.33" as="sourcePoint" />
            <mxPoint x="859" y="228.33" as="targetPoint" />
          </mxGeometry>
        </mxCell>
        <mxCell id="f4O8Jdmjoy-_KB66TQuN-50" value="" style="shape=trapezoid;perimeter=trapezoidPerimeter;whiteSpace=wrap;html=1;fixedSize=1;rotation=90;" parent="1" vertex="1">
          <mxGeometry x="822" y="191.33" width="102.5" height="30" as="geometry" />
        </mxCell>
        <mxCell id="f4O8Jdmjoy-_KB66TQuN-51" value="" style="endArrow=none;html=1;rounded=0;entryX=0.25;entryY=1;entryDx=0;entryDy=0;" parent="1" edge="1">
          <mxGeometry width="50" height="50" relative="1" as="geometry">
            <mxPoint x="799" y="180.33" as="sourcePoint" />
            <mxPoint x="858" y="180.33" as="targetPoint" />
          </mxGeometry>
        </mxCell>
        <mxCell id="f4O8Jdmjoy-_KB66TQuN-52" value="1&#39;b0" style="text;strokeColor=none;align=center;fillColor=none;html=1;verticalAlign=middle;whiteSpace=wrap;rounded=0;" parent="1" vertex="1">
          <mxGeometry x="820" y="168.33" width="43" height="10" as="geometry" />
        </mxCell>
        <mxCell id="f4O8Jdmjoy-_KB66TQuN-53" value="" style="endArrow=none;html=1;rounded=0;entryX=1;entryY=0.5;entryDx=0;entryDy=0;" parent="1" target="f4O8Jdmjoy-_KB66TQuN-45" edge="1">
          <mxGeometry width="50" height="50" relative="1" as="geometry">
            <mxPoint x="710" y="555" as="sourcePoint" />
            <mxPoint x="710.25" y="270.58000000000004" as="targetPoint" />
          </mxGeometry>
        </mxCell>
        <mxCell id="f4O8Jdmjoy-_KB66TQuN-54" value="" style="endArrow=none;html=1;rounded=0;entryX=1;entryY=0.25;entryDx=0;entryDy=0;" parent="1" target="f4O8Jdmjoy-_KB66TQuN-50" edge="1">
          <mxGeometry width="50" height="50" relative="1" as="geometry">
            <mxPoint x="738" y="695.33" as="sourcePoint" />
            <mxPoint x="548" y="455.33" as="targetPoint" />
            <Array as="points">
              <mxPoint x="878" y="695.33" />
            </Array>
          </mxGeometry>
        </mxCell>
        <mxCell id="f4O8Jdmjoy-_KB66TQuN-55" value="" style="endArrow=classic;html=1;rounded=0;exitX=0.5;exitY=0;exitDx=0;exitDy=0;endFill=1;" parent="1" edge="1">
          <mxGeometry width="50" height="50" relative="1" as="geometry">
            <mxPoint x="888" y="206.33" as="sourcePoint" />
            <mxPoint x="1000" y="206" as="targetPoint" />
          </mxGeometry>
        </mxCell>
        <mxCell id="f4O8Jdmjoy-_KB66TQuN-56" value="slot1_valid_r" style="text;strokeColor=none;align=center;fillColor=none;html=1;verticalAlign=middle;whiteSpace=wrap;rounded=0;" parent="1" vertex="1">
          <mxGeometry x="884" y="193.33" width="80" height="10" as="geometry" />
        </mxCell>
        <mxCell id="f4O8Jdmjoy-_KB66TQuN-57" value="1&lt;br&gt;&lt;br&gt;&lt;br&gt;0" style="text;strokeColor=none;align=center;fillColor=none;html=1;verticalAlign=middle;whiteSpace=wrap;rounded=0;" parent="1" vertex="1">
          <mxGeometry x="698" y="189.33" width="10" height="60" as="geometry" />
        </mxCell>
        <mxCell id="f4O8Jdmjoy-_KB66TQuN-58" value="1&lt;br&gt;&lt;br&gt;&lt;br&gt;0" style="text;strokeColor=none;align=center;fillColor=none;html=1;verticalAlign=middle;whiteSpace=wrap;rounded=0;" parent="1" vertex="1">
          <mxGeometry x="860" y="176.33" width="10" height="60" as="geometry" />
        </mxCell>
        <mxCell id="f4O8Jdmjoy-_KB66TQuN-59" value="0&lt;br&gt;&lt;br&gt;&lt;br&gt;1" style="text;strokeColor=none;align=center;fillColor=none;html=1;verticalAlign=middle;whiteSpace=wrap;rounded=0;" parent="1" vertex="1">
          <mxGeometry x="723.5" y="544.33" width="10" height="60" as="geometry" />
        </mxCell>
        <mxCell id="f4O8Jdmjoy-_KB66TQuN-60" value="slot1_valid_r1" style="text;strokeColor=none;align=center;fillColor=none;html=1;verticalAlign=middle;whiteSpace=wrap;rounded=0;" parent="1" vertex="1">
          <mxGeometry x="395" y="239.33" width="80" height="10" as="geometry" />
        </mxCell>
        <mxCell id="f4O8Jdmjoy-_KB66TQuN-61" value="slot1_valid_r0" style="text;strokeColor=none;align=center;fillColor=none;html=1;verticalAlign=middle;whiteSpace=wrap;rounded=0;" parent="1" vertex="1">
          <mxGeometry x="535" y="225.33" width="80" height="10" as="geometry" />
        </mxCell>
        <mxCell id="f4O8Jdmjoy-_KB66TQuN-64" value="slot0_valid_r1" style="text;strokeColor=none;align=center;fillColor=none;html=1;verticalAlign=middle;whiteSpace=wrap;rounded=0;" parent="1" vertex="1">
          <mxGeometry x="417" y="556.33" width="80" height="10" as="geometry" />
        </mxCell>
        <mxCell id="f4O8Jdmjoy-_KB66TQuN-65" value="slot0_valid_r0" style="text;strokeColor=none;align=center;fillColor=none;html=1;verticalAlign=middle;whiteSpace=wrap;rounded=0;" parent="1" vertex="1">
          <mxGeometry x="551" y="542.33" width="80" height="10" as="geometry" />
        </mxCell>
        <mxCell id="f4O8Jdmjoy-_KB66TQuN-66" value="slot1_valid_r_i_n_0" style="text;strokeColor=none;align=center;fillColor=none;html=1;verticalAlign=middle;whiteSpace=wrap;rounded=0;" parent="1" vertex="1">
          <mxGeometry x="751" y="214.33" width="104.5" height="10" as="geometry" />
        </mxCell>
        <mxCell id="f4O8Jdmjoy-_KB66TQuN-77" value="" style="endArrow=none;html=1;rounded=0;entryX=0;entryY=0.5;entryDx=0;entryDy=0;" parent="1" target="f4O8Jdmjoy-_KB66TQuN-84" edge="1">
          <mxGeometry width="50" height="50" relative="1" as="geometry">
            <mxPoint x="623" y="238.33" as="sourcePoint" />
            <mxPoint x="623.7594999999999" y="119.99600000000017" as="targetPoint" />
            <Array as="points">
              <mxPoint x="623" y="280" />
              <mxPoint x="435" y="280" />
            </Array>
          </mxGeometry>
        </mxCell>
        <mxCell id="f4O8Jdmjoy-_KB66TQuN-78" value="" style="shape=xor;whiteSpace=wrap;html=1;" parent="1" vertex="1">
          <mxGeometry x="231" y="359.33" width="58" height="60" as="geometry" />
        </mxCell>
        <mxCell id="f4O8Jdmjoy-_KB66TQuN-79" value="" style="endArrow=none;html=1;rounded=0;entryX=0.138;entryY=0.166;entryDx=0;entryDy=0;entryPerimeter=0;" parent="1" target="f4O8Jdmjoy-_KB66TQuN-78" edge="1">
          <mxGeometry width="50" height="50" relative="1" as="geometry">
            <mxPoint x="141" y="369.33" as="sourcePoint" />
            <mxPoint x="186" y="379.33" as="targetPoint" />
          </mxGeometry>
        </mxCell>
        <mxCell id="f4O8Jdmjoy-_KB66TQuN-80" value="" style="endArrow=none;html=1;rounded=0;entryX=0.138;entryY=0.166;entryDx=0;entryDy=0;entryPerimeter=0;" parent="1" edge="1">
          <mxGeometry width="50" height="50" relative="1" as="geometry">
            <mxPoint x="141" y="409.33" as="sourcePoint" />
            <mxPoint x="239" y="409.33" as="targetPoint" />
          </mxGeometry>
        </mxCell>
        <mxCell id="f4O8Jdmjoy-_KB66TQuN-81" value="fetch0_valid_i" style="text;strokeColor=none;align=center;fillColor=none;html=1;verticalAlign=middle;whiteSpace=wrap;rounded=0;" parent="1" vertex="1">
          <mxGeometry x="150" y="355.33" width="81" height="10" as="geometry" />
        </mxCell>
        <mxCell id="f4O8Jdmjoy-_KB66TQuN-82" value="fetch1_valid_i" style="text;strokeColor=none;align=center;fillColor=none;html=1;verticalAlign=middle;whiteSpace=wrap;rounded=0;" parent="1" vertex="1">
          <mxGeometry x="150" y="396.33" width="81" height="10" as="geometry" />
        </mxCell>
        <mxCell id="f4O8Jdmjoy-_KB66TQuN-83" value="" style="endArrow=none;html=1;rounded=0;exitX=1;exitY=0.5;exitDx=0;exitDy=0;exitPerimeter=0;entryX=0.638;entryY=0.997;entryDx=0;entryDy=0;entryPerimeter=0;" parent="1" source="f4O8Jdmjoy-_KB66TQuN-78" target="f4O8Jdmjoy-_KB66TQuN-84" edge="1">
          <mxGeometry width="50" height="50" relative="1" as="geometry">
            <mxPoint x="321" y="409.33" as="sourcePoint" />
            <mxPoint x="381" y="389.33" as="targetPoint" />
          </mxGeometry>
        </mxCell>
        <mxCell id="f4O8Jdmjoy-_KB66TQuN-84" value="" style="shape=trapezoid;perimeter=trapezoidPerimeter;whiteSpace=wrap;html=1;fixedSize=1;rotation=90;size=11.500000000000114;" parent="1" vertex="1">
          <mxGeometry x="396" y="365.33" width="77" height="26.5" as="geometry" />
        </mxCell>
        <mxCell id="f4O8Jdmjoy-_KB66TQuN-85" value="" style="endArrow=none;html=1;rounded=0;" parent="1" edge="1">
          <mxGeometry width="50" height="50" relative="1" as="geometry">
            <mxPoint x="331" y="359.33" as="sourcePoint" />
            <mxPoint x="421" y="359.33" as="targetPoint" />
          </mxGeometry>
        </mxCell>
        <mxCell id="f4O8Jdmjoy-_KB66TQuN-86" value="mispredicted_r0" style="text;strokeColor=none;align=center;fillColor=none;html=1;verticalAlign=middle;whiteSpace=wrap;rounded=0;" parent="1" vertex="1">
          <mxGeometry x="334" y="376.58" width="81" height="10" as="geometry" />
        </mxCell>
        <mxCell id="f4O8Jdmjoy-_KB66TQuN-87" value="1&#39;b0" style="text;strokeColor=none;align=center;fillColor=none;html=1;verticalAlign=middle;whiteSpace=wrap;rounded=0;" parent="1" vertex="1">
          <mxGeometry x="392" y="348.33" width="29" height="10" as="geometry" />
        </mxCell>
        <mxCell id="f4O8Jdmjoy-_KB66TQuN-88" value="" style="endArrow=none;html=1;rounded=0;exitX=0.5;exitY=0;exitDx=0;exitDy=0;" parent="1" source="f4O8Jdmjoy-_KB66TQuN-84" edge="1">
          <mxGeometry width="50" height="50" relative="1" as="geometry">
            <mxPoint x="504" y="413.5" as="sourcePoint" />
            <mxPoint x="570" y="380" as="targetPoint" />
          </mxGeometry>
        </mxCell>
        <mxCell id="f4O8Jdmjoy-_KB66TQuN-89" value="" style="shape=trapezoid;perimeter=trapezoidPerimeter;whiteSpace=wrap;html=1;fixedSize=1;rotation=90;size=11.500000000000114;" parent="1" vertex="1">
          <mxGeometry x="545" y="355.33" width="77" height="26.5" as="geometry" />
        </mxCell>
        <mxCell id="f4O8Jdmjoy-_KB66TQuN-91" value="&lt;p style=&quot;line-height: 90%;&quot;&gt;1&lt;br&gt;&lt;br&gt;&lt;br&gt;0&lt;/p&gt;" style="text;strokeColor=none;align=center;fillColor=none;html=1;verticalAlign=middle;whiteSpace=wrap;rounded=0;" parent="1" vertex="1">
          <mxGeometry x="423" y="345.33000000000004" width="10" height="60" as="geometry" />
        </mxCell>
        <mxCell id="f4O8Jdmjoy-_KB66TQuN-96" value="" style="endArrow=none;html=1;rounded=0;" parent="1" edge="1">
          <mxGeometry width="50" height="50" relative="1" as="geometry">
            <mxPoint x="480" y="354.64" as="sourcePoint" />
            <mxPoint x="570" y="354.64" as="targetPoint" />
          </mxGeometry>
        </mxCell>
        <mxCell id="f4O8Jdmjoy-_KB66TQuN-97" value="1&#39;b0" style="text;strokeColor=none;align=center;fillColor=none;html=1;verticalAlign=middle;whiteSpace=wrap;rounded=0;" parent="1" vertex="1">
          <mxGeometry x="541" y="343.64" width="29" height="10" as="geometry" />
        </mxCell>
        <mxCell id="f4O8Jdmjoy-_KB66TQuN-98" value="&lt;p style=&quot;line-height: 90%;&quot;&gt;1&lt;br&gt;&lt;br&gt;&lt;br&gt;0&lt;/p&gt;" style="text;strokeColor=none;align=center;fillColor=none;html=1;verticalAlign=middle;whiteSpace=wrap;rounded=0;" parent="1" vertex="1">
          <mxGeometry x="572" y="338.58000000000004" width="10" height="60" as="geometry" />
        </mxCell>
        <mxCell id="f4O8Jdmjoy-_KB66TQuN-99" value="mispredicted_r_i_n_0" style="text;strokeColor=none;align=center;fillColor=none;html=1;verticalAlign=middle;whiteSpace=wrap;rounded=0;" parent="1" vertex="1">
          <mxGeometry x="467" y="366.58" width="81" height="10" as="geometry" />
        </mxCell>
        <mxCell id="f4O8Jdmjoy-_KB66TQuN-100" value="" style="endArrow=classic;html=1;rounded=0;endFill=1;" parent="1" edge="1">
          <mxGeometry width="50" height="50" relative="1" as="geometry">
            <mxPoint x="597" y="369.34" as="sourcePoint" />
            <mxPoint x="1000" y="370" as="targetPoint" />
          </mxGeometry>
        </mxCell>
        <mxCell id="f4O8Jdmjoy-_KB66TQuN-101" value="mispredicted" style="text;strokeColor=none;align=center;fillColor=none;html=1;verticalAlign=middle;whiteSpace=wrap;rounded=0;" parent="1" vertex="1">
          <mxGeometry x="597" y="355.33" width="81" height="10" as="geometry" />
        </mxCell>
        <mxCell id="f4O8Jdmjoy-_KB66TQuN-102" value="" style="endArrow=none;html=1;rounded=0;entryX=1;entryY=0.5;entryDx=0;entryDy=0;" parent="1" target="f4O8Jdmjoy-_KB66TQuN-89" edge="1">
          <mxGeometry width="50" height="50" relative="1" as="geometry">
            <mxPoint x="710" y="440" as="sourcePoint" />
            <mxPoint x="678.21" y="381.83" as="targetPoint" />
            <Array as="points">
              <mxPoint x="584" y="440" />
            </Array>
          </mxGeometry>
        </mxCell>
        <mxCell id="f4O8Jdmjoy-_KB66TQuN-103" value="mispredicted" style="text;strokeColor=none;align=center;fillColor=none;html=1;verticalAlign=middle;whiteSpace=wrap;rounded=0;" parent="1" vertex="1">
          <mxGeometry x="1000" y="365.33" width="81" height="10" as="geometry" />
        </mxCell>
        <mxCell id="f4O8Jdmjoy-_KB66TQuN-104" value="slot1_valid_r" style="text;strokeColor=none;align=center;fillColor=none;html=1;verticalAlign=middle;whiteSpace=wrap;rounded=0;" parent="1" vertex="1">
          <mxGeometry x="1001" y="201.33" width="80" height="10" as="geometry" />
        </mxCell>
        <mxCell id="f4O8Jdmjoy-_KB66TQuN-106" value="slot0_valid_r" style="text;strokeColor=none;align=center;fillColor=none;html=1;verticalAlign=middle;whiteSpace=wrap;rounded=0;" parent="1" vertex="1">
          <mxGeometry x="1000" y="566.33" width="80" height="10" as="geometry" />
        </mxCell>
      </root>
    </mxGraphModel>
  </diagram>
</mxfile>
